<mxfile host="app.diagrams.net" modified="2023-11-05T21:13:55.456Z" agent="Mozilla/5.0 (Windows NT 10.0; Win64; x64) AppleWebKit/537.36 (KHTML, like Gecko) Chrome/118.0.0.0 Safari/537.36" etag="rRh3Dz4ULQNnhKaCbfsx" version="22.0.8" type="device">
  <diagram name="1 oldal" id="WqdtZ3drCSx7J2Oqyrh4">
    <mxGraphModel dx="1050" dy="574" grid="1" gridSize="10" guides="1" tooltips="1" connect="1" arrows="1" fold="1" page="1" pageScale="1" pageWidth="827" pageHeight="1169" background="#ffffff" math="0" shadow="0">
      <root>
        <mxCell id="0" />
        <mxCell id="1" parent="0" />
        <mxCell id="SeJ5c7w3kmiwYNEgQJxg-9" value="FlightView" style="shape=umlLifeline;perimeter=lifelinePerimeter;whiteSpace=wrap;html=1;container=1;dropTarget=0;collapsible=0;recursiveResize=0;outlineConnect=0;portConstraint=eastwest;newEdgeStyle={&quot;curved&quot;:0,&quot;rounded&quot;:0};size=35;" parent="1" vertex="1">
          <mxGeometry x="240" y="35" width="100" height="540" as="geometry" />
        </mxCell>
        <mxCell id="SeJ5c7w3kmiwYNEgQJxg-10" value="" style="html=1;points=[[0,0,0,0,5],[0,1,0,0,-5],[1,0,0,0,5],[1,1,0,0,-5]];perimeter=orthogonalPerimeter;outlineConnect=0;targetShapes=umlLifeline;portConstraint=eastwest;newEdgeStyle={&quot;curved&quot;:0,&quot;rounded&quot;:0};" parent="SeJ5c7w3kmiwYNEgQJxg-9" vertex="1">
          <mxGeometry x="40" y="100" width="10" height="390" as="geometry" />
        </mxCell>
        <mxCell id="SeJ5c7w3kmiwYNEgQJxg-35" value="show(&quot;invalid adat&quot;)" style="html=1;align=left;spacingLeft=2;endArrow=block;rounded=0;edgeStyle=orthogonalEdgeStyle;curved=0;rounded=0;" parent="SeJ5c7w3kmiwYNEgQJxg-9" source="SeJ5c7w3kmiwYNEgQJxg-10" target="SeJ5c7w3kmiwYNEgQJxg-10" edge="1">
          <mxGeometry x="0.6429" y="-10" relative="1" as="geometry">
            <mxPoint x="160" y="220" as="sourcePoint" />
            <Array as="points">
              <mxPoint x="110" y="430" />
              <mxPoint x="110" y="460" />
            </Array>
            <mxPoint as="offset" />
          </mxGeometry>
        </mxCell>
        <mxCell id="SeJ5c7w3kmiwYNEgQJxg-11" value="" style="shape=umlLifeline;perimeter=lifelinePerimeter;whiteSpace=wrap;html=1;container=1;dropTarget=0;collapsible=0;recursiveResize=0;outlineConnect=0;portConstraint=eastwest;newEdgeStyle={&quot;curved&quot;:0,&quot;rounded&quot;:0};participant=umlActor;size=40;" parent="1" vertex="1">
          <mxGeometry x="95" y="55" width="20" height="500" as="geometry" />
        </mxCell>
        <mxCell id="SeJ5c7w3kmiwYNEgQJxg-16" value="Keresési paraméterek továbbítása" style="html=1;verticalAlign=bottom;endArrow=block;curved=0;rounded=0;" parent="1" source="SeJ5c7w3kmiwYNEgQJxg-14" target="SeJ5c7w3kmiwYNEgQJxg-9" edge="1">
          <mxGeometry x="-0.0335" y="10" width="80" relative="1" as="geometry">
            <mxPoint x="370" y="315" as="sourcePoint" />
            <mxPoint x="450" y="315" as="targetPoint" />
            <Array as="points">
              <mxPoint x="220" y="135" />
            </Array>
            <mxPoint as="offset" />
          </mxGeometry>
        </mxCell>
        <mxCell id="SeJ5c7w3kmiwYNEgQJxg-21" value="FlightController" style="shape=umlLifeline;perimeter=lifelinePerimeter;whiteSpace=wrap;html=1;container=1;dropTarget=0;collapsible=0;recursiveResize=0;outlineConnect=0;portConstraint=eastwest;newEdgeStyle={&quot;curved&quot;:0,&quot;rounded&quot;:0};" parent="1" vertex="1">
          <mxGeometry x="385" y="35" width="100" height="540" as="geometry" />
        </mxCell>
        <mxCell id="SeJ5c7w3kmiwYNEgQJxg-28" value="" style="html=1;points=[[0,0,0,0,5],[0,1,0,0,-5],[1,0,0,0,5],[1,1,0,0,-5]];perimeter=orthogonalPerimeter;outlineConnect=0;targetShapes=umlLifeline;portConstraint=eastwest;newEdgeStyle={&quot;curved&quot;:0,&quot;rounded&quot;:0};" parent="SeJ5c7w3kmiwYNEgQJxg-21" vertex="1">
          <mxGeometry x="45" y="100" width="10" height="240" as="geometry" />
        </mxCell>
        <mxCell id="SeJ5c7w3kmiwYNEgQJxg-22" value="FlightDAO" style="shape=umlLifeline;perimeter=lifelinePerimeter;whiteSpace=wrap;html=1;container=1;dropTarget=0;collapsible=0;recursiveResize=0;outlineConnect=0;portConstraint=eastwest;newEdgeStyle={&quot;curved&quot;:0,&quot;rounded&quot;:0};" parent="1" vertex="1">
          <mxGeometry x="520" y="35" width="100" height="550" as="geometry" />
        </mxCell>
        <mxCell id="SeJ5c7w3kmiwYNEgQJxg-26" value="" style="html=1;points=[[0,0,0,0,5],[0,1,0,0,-5],[1,0,0,0,5],[1,1,0,0,-5]];perimeter=orthogonalPerimeter;outlineConnect=0;targetShapes=umlLifeline;portConstraint=eastwest;newEdgeStyle={&quot;curved&quot;:0,&quot;rounded&quot;:0};" parent="1" vertex="1">
          <mxGeometry x="565" y="150" width="10" height="215" as="geometry" />
        </mxCell>
        <mxCell id="SeJ5c7w3kmiwYNEgQJxg-36" value="Keresés(adat)" style="html=1;verticalAlign=bottom;endArrow=block;curved=0;rounded=0;" parent="1" edge="1">
          <mxGeometry width="80" relative="1" as="geometry">
            <mxPoint x="290" y="180" as="sourcePoint" />
            <mxPoint x="430" y="180" as="targetPoint" />
            <Array as="points" />
          </mxGeometry>
        </mxCell>
        <mxCell id="SeJ5c7w3kmiwYNEgQJxg-37" value="Keres(adatok)" style="html=1;verticalAlign=bottom;endArrow=block;curved=0;rounded=0;" parent="1" edge="1">
          <mxGeometry width="80" relative="1" as="geometry">
            <mxPoint x="440" y="190" as="sourcePoint" />
            <mxPoint x="565" y="190" as="targetPoint" />
          </mxGeometry>
        </mxCell>
        <mxCell id="SeJ5c7w3kmiwYNEgQJxg-38" value="return jaratok(adat)" style="html=1;verticalAlign=bottom;endArrow=open;dashed=1;endSize=8;curved=0;rounded=0;exitX=0;exitY=1;exitDx=0;exitDy=-5;exitPerimeter=0;" parent="1" source="SeJ5c7w3kmiwYNEgQJxg-26" target="SeJ5c7w3kmiwYNEgQJxg-28" edge="1">
          <mxGeometry relative="1" as="geometry">
            <mxPoint x="460" y="275" as="sourcePoint" />
            <mxPoint x="380" y="275" as="targetPoint" />
          </mxGeometry>
        </mxCell>
        <mxCell id="SeJ5c7w3kmiwYNEgQJxg-39" value="show (&quot; Sikeres szures&quot;)" style="html=1;verticalAlign=bottom;endArrow=open;dashed=1;endSize=8;curved=0;rounded=0;" parent="1" target="SeJ5c7w3kmiwYNEgQJxg-10" edge="1">
          <mxGeometry x="0.0358" relative="1" as="geometry">
            <mxPoint x="435.2" y="331.8" as="sourcePoint" />
            <mxPoint x="299.99999999999994" y="330.00000000000006" as="targetPoint" />
            <Array as="points">
              <mxPoint x="365.2" y="331.8" />
            </Array>
            <mxPoint as="offset" />
          </mxGeometry>
        </mxCell>
        <mxCell id="SeJ5c7w3kmiwYNEgQJxg-14" value="" style="html=1;points=[[0,0,0,0,5],[0,1,0,0,-5],[1,0,0,0,5],[1,1,0,0,-5]];perimeter=orthogonalPerimeter;outlineConnect=0;targetShapes=umlLifeline;portConstraint=eastwest;newEdgeStyle={&quot;curved&quot;:0,&quot;rounded&quot;:0};" parent="1" vertex="1">
          <mxGeometry x="100" y="135" width="10" height="330" as="geometry" />
        </mxCell>
        <mxCell id="l9nArhb8HgBhlXId-2-S-2" value="Felhasználó" style="text;strokeColor=none;fillColor=none;align=left;verticalAlign=top;spacingLeft=4;spacingRight=4;overflow=hidden;rotatable=0;points=[[0,0.5],[1,0.5]];portConstraint=eastwest;whiteSpace=wrap;html=1;" parent="1" vertex="1">
          <mxGeometry x="70" y="14" width="100" height="26" as="geometry" />
        </mxCell>
        <mxCell id="l9nArhb8HgBhlXId-2-S-3" value="Data is valid" style="shape=umlFrame;whiteSpace=wrap;html=1;pointerEvents=0;" parent="1" vertex="1">
          <mxGeometry x="20" y="100" width="630" height="320" as="geometry" />
        </mxCell>
        <mxCell id="l9nArhb8HgBhlXId-2-S-4" value="Data is invalid" style="shape=umlFrame;whiteSpace=wrap;html=1;pointerEvents=0;" parent="1" vertex="1">
          <mxGeometry x="20" y="420" width="630" height="110" as="geometry" />
        </mxCell>
        <mxCell id="7WqKAll2JI3zCM96CSLJ-1" value="return jaratLista" style="html=1;verticalAlign=bottom;endArrow=open;dashed=1;endSize=8;curved=0;rounded=0;" edge="1" parent="1" source="SeJ5c7w3kmiwYNEgQJxg-10" target="SeJ5c7w3kmiwYNEgQJxg-14">
          <mxGeometry relative="1" as="geometry">
            <mxPoint x="200" y="300" as="sourcePoint" />
            <mxPoint x="130" y="299.5" as="targetPoint" />
          </mxGeometry>
        </mxCell>
      </root>
    </mxGraphModel>
  </diagram>
</mxfile>
